PathFileType	4	(X/Y/Z)	F:\biomechanics\vid_Sports2D\vid_Sports2D_m_person00.trc
DataRate	CameraRate	NumFrames	NumMarkers	Units	OrigDataRate	OrigDataStartFrame	OrigNumFrames
250.0	250.0	10	22	m	250.0	288	769
Frame#	Time	Hip			RHip			RKnee			RAnkle			RBigToe			RSmallToe			RHeel			LHip			LKnee			LAnkle			LBigToe			LSmallToe			LHeel			Neck			Head			Nose			RShoulder			RElbow			RWrist			LShoulder			LElbow			LWrist			
		X1	Y1	Z1	X2	Y2	Z2	X3	Y3	Z3	X4	Y4	Z4	X5	Y5	Z5	X6	Y6	Z6	X7	Y7	Z7	X8	Y8	Z8	X9	Y9	Z9	X10	Y10	Z10	X11	Y11	Z11	X12	Y12	Z12	X13	Y13	Z13	X14	Y14	Z14	X15	Y15	Z15	X16	Y16	Z16	X17	Y17	Z17	X18	Y18	Z18	X19	Y19	Z19	X20	Y20	Z20	X21	Y21	Z21	X22	Y22	Z22
327	1.3096208178438664	1.327593581510169	0.5698483477902516	0.0	1.312493438564687	0.5673552589820857	0.105	1.6938591515445771	0.3152562718056218	0.0886	1.4902092492526848	-0.050545590952155425	0.0972	1.6578842051336333	-0.11259883064306177	0.0766	1.6166180137828492	-0.12120804980755312	0.12	1.4339271873790382	-0.09644359550990374	0.0883	1.3547571300499575	0.5666530952304868	-0.105	1.6604425171824764	0.31266564542692193	-0.0886	1.4871702041782366	-0.03937997020631148	-0.0972	1.6368876222366557	-0.11012611309954595	-0.0766	1.6265180202532177	-0.09112066453275258	-0.12	1.4154541770101208	-0.08409963134038904	-0.0883	1.4364313177516357	1.0944873109325977	0.0	1.4142034311869829	1.3783071355097012	0.0	1.5226156235688066	1.262609748351311	0.0	1.4252811008486115	0.9861724472353124	0.2016	1.6659965371207823	0.7791724524185922	0.1613	1.8270683906417327	0.9512190960439159	0.12	1.4768577035636394	1.038423591657121	-0.2016	1.6554810822470016	0.9407003328670305	-0.1613	1.8142437323202432	1.0072343951402978	-0.12
328	1.3136257744733584	1.3296026185871828	0.569948946363745	0.0	1.3149011492501539	0.5675911431328704	0.105	1.6957642874455772	0.3141721311225243	0.0886	1.4904710978625564	-0.050439059452648566	0.0972	1.658050808543926	-0.11259485019670895	0.0766	1.6168951060378072	-0.12116611847406504	0.12	1.4338191765862927	-0.09618485533794877	0.0883	1.3566550695425712	0.5667350821992138	-0.105	1.662063684442336	0.31174347720450807	-0.0886	1.4869001111141473	-0.03969794970219899	-0.0972	1.636966846151078	-0.11099788526155903	-0.0766	1.6262253085013405	-0.09188743362775537	-0.12	1.4152002993803734	-0.0843406544473322	-0.0883	1.4382065792900762	1.0941459121121357	0.0	1.415018291647991	1.3780399005732165	0.0	1.524198838845812	1.2627689591027234	0.0	1.4279833306833039	0.9861662094512404	0.2016	1.6719280039046913	0.7825654192788469	0.1613	1.8297473542694354	0.9578900463263004	0.12	1.4787202124916836	1.0383709269558248	-0.2016	1.6582984421007878	0.9425897974851564	-0.1613	1.8155566553436946	1.0127875048945547	-0.12
329	1.3176307311028503	1.3316017166987522	0.570132945679233	0.0	1.3173054557749406	0.5679231613563395	0.105	1.6976370589132428	0.31312081789279933	0.0886	1.490761841993191	-0.05030002911427835	0.0972	1.6582294382905747	-0.11256406520383977	0.0766	1.6171917244991079	-0.12111760188000933	0.12	1.433751403803747	-0.0959239326659639	0.0883	1.3585254518162462	0.5669188930138279	-0.105	1.6636601462727256	0.3108619135888484	-0.0886	1.4866185095257398	-0.039997251055492795	-0.0972	1.6370862203336636	-0.11187401475596342	-0.0766	1.6259259360712486	-0.09267782559281439	-0.12	1.414963307503564	-0.08455673926039742	-0.0883	1.4399480561120357	1.0938786296022147	0.0	1.4158193900293838	1.377851845292031	0.0	1.5257720210567431	1.263000607953469	0.0	1.4306738194025286	0.9862266988179914	0.2016	1.6778124951952569	0.7861123940842322	0.1613	1.8323157663869165	0.9645836110860894	0.12	1.4805035335719612	1.0383977427742754	-0.2016	1.6609733578286427	0.9445706644556482	-0.1613	1.8167175077282556	1.018412555810542	-0.12
330	1.3216356877323423	1.3335912243685821	0.570393630810751	0.0	1.319706622027681	0.568343910458873	0.105	1.6994785839463584	0.3121028682224764	0.0886	1.4910773726045512	-0.05012779135354706	0.0972	1.6584141520641444	-0.11250759318029326	0.0766	1.6175049974695985	-0.12106276678334901	0.12	1.433720193730596	-0.09566096259419059	0.0883	1.3603662046711387	0.5671977689134697	-0.105	1.6652318570742977	0.3100178592998123	-0.0886	1.4863302198303747	-0.040271342056642984	-0.0972	1.637249613610507	-0.11274354004512427	-0.0766	1.6256228340289172	-0.09348286262339292	-0.12	1.414747251844816	-0.08474491410132949	-0.0883	1.441656270517897	1.093685177494613	0.0	1.4166103740569962	1.3777436759027666	0.0	1.5273362961407146	1.2633022877444817	0.0	1.433349279577121	0.9863557660074863	0.2016	1.6836511068629998	0.789812396552107	0.1613	1.8347728687815243	0.9712907219673784	0.12	1.4822044854661183	1.0385023601054195	-0.2016	1.6635034598543446	0.9466416426352899	-0.1613	1.8177260180565709	1.0241100934152985	-0.12
331	1.325640644361834	1.335571869794981	0.570724699487757	0.0	1.3221054671358758	0.5688463622854485	0.105	1.7012899602168745	0.3111190535894527	0.0886	1.4914131945488973	-0.0499226250594154	0.0972	1.6585983098365695	-0.11242744580478886	0.0766	1.6178313634026171	-0.121001844179503	0.12	1.4337211773149274	-0.09539561936548513	0.0883	1.36217641218934	0.5675651363180573	-0.105	1.6667770462094367	0.3092079869414319	-0.0886	1.4860394978454359	-0.04051487924270127	-0.0972	1.6374597487325502	-0.11359535893791804	-0.0766	1.6253182928326884	-0.09429415989879646	-0.12	1.4145552293398016	-0.08490249036375463	-0.0883	1.4433320128620315	1.0935650237636927	0.0	1.4173941200933509	1.3777166239303629	0.0	1.5288925938548374	1.2636723062193842	0.0	1.4360072436526	0.9865556354077724	0.2016	1.6894439573136313	0.7936637562221989	0.1613	1.8371166167082085	0.9780033601453437	0.12	1.4838204873399916	1.038683244812893	-0.2016	1.6658884437576824	0.9488012655513836	-0.1613	1.8185827571489848	1.0298811677123376	-0.12
332	1.329645600991326	1.3375454691484407	0.5711203695376222	0.0	1.3245033282824341	0.5694237875088348	0.105	1.70307252231179	0.3101702402100186	0.0886	1.4917650606675268	-0.049685875933884786	0.0972	1.65877527008092	-0.11232588680510482	0.0766	1.6181664416295005	-0.1209350237689592	0.12	1.4337494514873983	-0.09512732499852282	0.0883	1.3639555949520916	0.568014331660199	-0.105	1.6682926524698116	0.3084287002833021	-0.0886	1.4857492365714828	-0.04072369655459075	-0.0972	1.6377173515860757	-0.11441963075596805	-0.0766	1.6250131238391143	-0.09510363220651283	-0.12	1.4143889028248031	-0.08502658991241392	-0.0883	1.4449758517008373	1.0935175644156239	0.0	1.4181728003252592	1.377772209804764	0.0	1.5304410027549458	1.2641096974715242	0.0	1.4386451613988926	0.986828670791242	0.2016	1.6951896415661314	0.7976642265709989	0.1613	1.83934440188063	0.9847153320958563	0.12	1.485348406553833	1.0389392754373032	-0.2016	1.6681289405268662	0.9510476153364347	-0.1613	1.8192886469566356	1.0357267023070331	-0.12
333	1.333650557620818	1.3395147403896772	0.5715758223588966	0.0	1.3269026715521857	0.5700696595165162	0.105	1.7048277267282383	0.30925727595122454	0.0886	1.4921297413059016	-0.049419826044095824	0.0972	1.6589391684551145	-0.11220498097929961	0.0766	1.6185052801341062	-0.12086270492355139	0.12	1.43379969626779	-0.09485534958438288	0.0883	1.365703216153046	0.5685383919676291	-0.105	1.6697738734200362	0.30767613181445097	-0.0886	1.4854608573684331	-0.040894761240007224	-0.0972	1.6380209703979112	-0.11520793152433928	-0.0766	1.6247075323615165	-0.09590300813897645	-0.12	1.414248536794163	-0.08511366150882163	-0.0883	1.446587890218498	1.0935422082913042	0.0	1.4189484671258386	1.377911959715759	0.0	1.5319807161808332	1.2646140747471357	0.0	1.4412609118114554	0.9871771080563758	0.2016	1.7008853309114553	0.8018109287594041	0.1613	1.8414532792561593	0.9914225125702153	0.12	1.4867845082819782	1.0392693461122078	-0.2016	1.6702264628372956	0.9533788986570557	-0.1613	1.8198449202511304	1.0416464880079281	-0.12
334	1.33765551425031	1.3414827112230072	0.5720874253968298	0.0	1.3293073420250494	0.5707776140933727	0.105	1.7065566951360662	0.30838103329554994	0.0886	1.4925051669987845	-0.04912725416879412	0.0972	1.659085044361786	-0.11206686335712061	0.0766	1.6188427172793831	-0.12078597069234485	0.12	1.4338664699344128	-0.09457865757442503	0.0883	1.3674188465619521	0.5691303944343273	-0.105	1.6712144552855397	0.30694628151535214	-0.0886	1.485175087436746	-0.04102614700707967	-0.0972	1.6383679034391343	-0.11595316951608778	-0.0766	1.6244025105090159	-0.09668428392562181	-0.12	1.4141333335145132	-0.08515976050367377	-0.0883	1.4481677997802027	1.093638425466852	0.0	1.4197238888494659	1.3781372688911326	0.0	1.5335101004707374	1.2651854377023772	0.0	1.4438536090120588	0.9876029001569876	0.2016	1.7065269154126395	0.8061006041210808	0.1613	1.8434400504695472	0.9981225533191168	0.12	1.4881249783036383	1.0396722311789444	-0.2016	1.672184159090561	0.955793694405147	-0.1613	1.8202540278815316	1.0476383471793629	-0.12
335	1.341660470879802	1.343452435259323	0.5726520323594356	0.0	1.3317216339240934	0.5715413840208811	0.105	1.7082600350904054	0.3075422805130427	0.0886	1.4928898795793863	-0.048810991287092056	0.0972	1.659208700856334	-0.1119138626683977	0.0766	1.619173698297916	-0.12070661431655053	0.12	1.4339446068953783	-0.0942959264524676	0.0883	1.3691027513695728	0.5697838428164693	-0.105	1.6726079522567223	0.30623522987697566	-0.0886	1.4848927736521147	-0.041116720187933754	-0.0972	1.638754732371596	-0.11664952785869911	-0.0766	1.624099702838942	-0.09744047563330718	-0.12	1.414041179847305	-0.08516122446026059	-0.0883	1.4497153964926188	1.0938060257011006	0.0	1.4205029012881927	1.3784493295423865	0.0	1.5350264712183972	1.2658240356469992	0.0	1.4464230321806861	0.9881074436138513	0.2016	1.7121091048826125	0.8105304753575837	0.1613	1.8453018321666994	1.0048152764860345	0.12	1.4893662913552856	1.0401467289139155	-0.2016	1.6740074026868645	0.9582897276314873	-0.1613	1.820520823236326	1.0536983929892292	-0.12
336	1.3456654275092939	1.3454266975949745	0.5732664605145853	0.0	1.3341490410113535	0.5723549079176379	0.105	1.7099381051342952	0.30674136450898093	0.0886	1.493282612246511	-0.048473520354866226	0.0972	1.6593068812563314	-0.11174826284845042	0.0766	1.6194936135691334	-0.12062608600595198	0.12	1.434029640866457	-0.09400580256305745	0.0883	1.3707560330608617	0.5704928515814599	-0.105	1.673948529573181	0.30553942224658437	-0.0886	1.484615105955842	-0.04116536613504468	-0.0972	1.6391770973868178	-0.11729205468939335	-0.0766	1.6238005664793618	-0.09816546553427129	-0.12	1.4139684897955087	-0.08511490879797513	-0.0883	1.4512314223075728	1.0940455423766322	0.0	1.4212899663544576	1.3788491873603261	0.0	1.5365260626051598	1.2665302857710543	0.0	1.4489686536754118	0.9886912566690965	0.2016	1.7176254823307289	0.8150986876229764	0.1613	1.847036498906945	1.011503477987716	0.12	1.4905052416877673	1.0406915716722467	-0.2016	1.6757036492573176	0.9608628880020226	-0.1613	1.8206530273684414	1.0598218918828253	-0.12
